<svg viewBox="0 0 500 94.66027" width="120" fill="currentColor">
    <path d="m337.099 4.185h-78.227l-2.486 21.222h26.756l-7.753 66.16h24.717l7.75-66.16h26.753z" />
    <path d="m361.974 57.114h42.808l2.239-19.101h-42.808l1.551-13.231h47.265l2.414-20.597h-71.727l-10.24 87.382h72.364l2.414-20.598h-47.903z" />
    <path d="m473.84756 35.51713-.03.24966c-.74288 6.36541-6.05392 10.36032-14.46278 10.36032h-16.30753l2.46013-20.97025h16.18c8.28067 0 12.96756 3.4956 12.16016 10.36027m19.507-21.84652c-5.28613-5.991-14.30621-9.48573-27.93658-9.48573h-42.1711l-10.2398 87.38176h24.71634l3.1014-26.46371h10.8302l14.86312 26.46371h28.53562l-17.70455-30.45773c11.6248-4.6198 19.92271-13.48321 21.49106-26.84076l.02932-.2496c1.007-8.61208-.8798-15.35455-5.515-20.34794" />
    <path d="m118.22092 77.049a51.04856 51.04856 0 0 0 6.72693-9.38247 36.61179 36.61179 0 0 0 3.86577-10.1477 22.921 22.921 0 0 0 -.13943-11.22021 14.94418 14.94418 0 0 0 -7.21936-8.83762c-4.38994-2.51345-10.0461-2.8311-15.13505-2.08049a46.986 46.986 0 0 0 -17.95149 6.96544 58.42682 58.42682 0 0 0 -4.87975 3.47668 3.56453 3.56453 0 0 0 -.9959 1.61307q-.399 2.16143-.61459 4.29957c0 .01981 0 .03531.00084.062.0155.51644.13513 2.26815 1.03378 1.41857a1.03885 1.03885 0 0 1 .1386-.10933 45.94018 45.94018 0 0 1 7.31319-5.78356 36.56531 36.56531 0 0 1 13.95143-5.41343c3.957-.58448 8.35128-.33571 11.76255 1.61827a11.616 11.616 0 0 1 5.61312 6.86641 17.82881 17.82881 0 0 1 .10933 8.72141 28.37141 28.37141 0 0 1 -3.005 7.88643 39.72912 39.72912 0 0 1 -5.2275 7.29335 44.86588 44.86588 0 0 1 -6.05817 5.6028 43.71881 43.71881 0 0 1 -6.33872 4.05683 36.97887 36.97887 0 0 1 -4.74463 2.07017l-.00084.00257s-1.71383.73684-.87716 1.63981a30.85989 30.85989 0 0 0 3.43281 2.26124 3.65442 3.65442 0 0 0 3.29074-.4519 56.65843 56.65843 0 0 0 8.15585-5.218 57.68776 57.68776 0 0 0 7.79264-7.20987" />
    <path d="m148.19266 5.04376c-10.548-5.87134-23.4433-5.12678-35.13261.79453l-.03274.01634c-.08779.04476-.173.09641-.26079.14117-1.10356.64648.27629.631.27629.631l.00174.00168c9.68631-1.90833 19.08856-2.75361 29.69418 1.91352 12.87724 6.06506 18.4198 19.51811 20.7344 30.36992h.0009s1.21451 2.7244 2.06672.09988c.29353-14.50927-5.72334-27.49753-17.34809-33.968" />
    <path d="m139.40075 13.55445c-9.49524-5.03469-24.57607-3.394-35.95814-.61716a6.60721 6.60721 0 0 0 -2.39982 1.27913q-1.60879 1.47447-3.13579 3.09279c-.1696.20742-1.206 1.527.18677 1.156.02842-.00688.04991-.00772.07749-.01376 12.316-3.382 27.39939-4.63614 36.00889-.01981 12.6207 6.76743 16.26 18.80628 15.59985 31.73685-.65246 12.77222-6.04608 25.68043-13.45395 36.64068l.00946.00087s-.54056 1.31528.47.76093a52.455 52.455 0 0 0 5.762-4.00949 40.55116 40.55116 0 0 0 2.55306-3.1866c6.665-10.39476 11.20387-22.449 11.51547-34.36049.35552-13.55209-4.13256-25.51171-17.23529-32.45992" />
    <path d="m142.63959 53.29934a32.75838 32.75838 0 0 0 -.82553-15.39668 21.79789 21.79789 0 0 0 -9.89206-12.06291c-5.92126-3.56621-13.6166-4.36846-20.64746-3.71342a67.00523 67.00523 0 0 0 -21.48669 6.03316c-.03872.06547-.07918.1283-.11795.19371q-.78113 1.33246-1.48739 2.69855c-.04135.07917-.07834.15834-.11879.23757-.20574.40281-.38993.81339-.58706 1.21882-.19024.52165-.3271 1.35747 1.11212.69381.02842-.01292.04907-.01549.07576-.02669a59.86387 59.86387 0 0 1 19.0946-5.7018c6.20192-.66965 13.02272-.04734 18.245 3.1315a18.89017 18.89017 0 0 1 8.594 10.80968 30.17339 30.17339 0 0 1 .513 13.93509 50.23472 50.23472 0 0 1 -4.37186 13.33432 73.66155 73.66155 0 0 1 -8.31855 13.27832 87.80413 87.80413 0 0 1 -9.38507 10.20883l.02065.00514s-.06026.04563-.14979.11708c-.25475.23671-.5001.48288-.75833.717-.3116.37186-.4545.74373.08953.83669a35.95309 35.95309 0 0 0 4.35379.08608l.01724-.04649a4.63183 4.63183 0 0 0 2.65551-1.08028 94.20125 94.20125 0 0 0 9.52019-10.30264 78.07644 78.07644 0 0 0 9.15355-14.54622 53.206 53.206 0 0 0 4.7016-14.65822" />
    <path d="m91.93628 74.14048a6.1394 6.1394 0 0 1 -2.37575-1.29721 5.56211 5.56211 0 0 1 -1.651-2.72862 9.22155 9.22155 0 0 1 .06116-4.1748 12.4783 12.4783 0 0 1 1.01655-2.72518 16.7 16.7 0 0 1 1.72412-2.76485 20.70353 20.70353 0 0 1 5.32564-4.81865 16.97417 16.97417 0 0 1 6.492-2.52033 8.66654 8.66654 0 0 1 5.47368.75234 5.41438 5.41438 0 0 1 2.6116 3.19775 8.27983 8.27983 0 0 1 .05338 4.05859 13.25673 13.25673 0 0 1 -1.39966 3.66776 18.30544 18.30544 0 0 1 -2.43339 3.39751 20.99556 20.99556 0 0 1 -2.81817 2.60555 20.45278 20.45278 0 0 1 -2.9482 1.88768 16.83781 16.83781 0 0 1 -3.042 1.23608 13.055 13.055 0 0 1 -3.0609.54486 9.193 9.193 0 0 1 -3.02906-.31848m10.01084 2.95073a30.35478 30.35478 0 0 0 4.40029-2.8156 31.34731 31.34731 0 0 0 4.20832-3.89412 27.287 27.287 0 0 0 3.62988-5.06311 19.75154 19.75154 0 0 0 2.0848-5.47542 12.36533 12.36533 0 0 0 -.0766-6.05638 8.065 8.065 0 0 0 -3.895-4.76958 12.93866 12.93866 0 0 0 -8.17044-1.12163 25.40925 25.40925 0 0 0 -9.68721 3.75818 30.988 30.988 0 0 0 -7.94585 7.19009 25.06607 25.06607 0 0 0 -2.57371 4.12311 19.35127 19.35127 0 0 0 -1.36089 3.5042c-.05248.18683-.10759.36756-.15577.56384a13.80312 13.80312 0 0 0 -.09042 6.23028 8.32372 8.32372 0 0 0 2.46444 4.07406 8.92081 8.92081 0 0 0 2.7536 1.65528c.26.09985.52075.19709.79106.27716a13.80808 13.80808 0 0 0 4.52165.47946 19.48975 19.48975 0 0 0 4.563-.81517 25.2851 25.2851 0 0 0 4.53888-1.84465" />
    <path d="m100.03233 67.71347a9.0382 9.0382 0 0 0 1.31612-.841 9.474 9.474 0 0 0 1.2576-1.16718 8.06362 8.06362 0 0 0 1.08543-1.51066 5.9857 5.9857 0 0 0 .62661-1.63892 3.71512 3.71512 0 0 0 -.02579-1.81628 2.40138 2.40138 0 0 0 -1.16466-1.42371 3.4578 3.4578 0 0 0 -1.78349-.38994 5.32108 5.32108 0 0 0 -.61291.05422 7.58008 7.58008 0 0 0 -2.89992 1.12336 9.34936 9.34936 0 0 0 -2.37832 2.15281 7.34917 7.34917 0 0 0 -.76957 1.23264 5.72884 5.72884 0 0 0 -.45618 1.21714 4.14824 4.14824 0 0 0 -.02412 1.86183 2.49346 2.49346 0 0 0 .736 1.22061 2.72773 2.72773 0 0 0 1.06047.58017 4.1 4.1 0 0 0 1.31355.142 5.819 5.819 0 0 0 1.3592-.24362 7.4824 7.4824 0 0 0 1.36-.55348" />
    <path d="m33.469 25.407h46.628l2.487-21.223h-71.346l-10.238 87.383h24.716l3.657-31.207h42.17l2.354-20.099h-42.171z" />
    <path d="m227.66969 35.51713-.0301.24966c-.74546 6.36541-6.05471 10.36032-14.46278 10.36032h-16.30743l2.4575-20.97025h16.18c8.28156 0 12.96587 3.4956 12.16278 10.36027m19.50266-21.84652c-5.28607-5.991-14.30443-9.48573-27.9348-9.48573h-42.17116l-10.23722 87.38176h24.71634l3.09877-26.46371h10.83117l14.86306 26.46371h28.5373l-17.707-30.45773c11.6248-4.6198 19.92528-13.48321 21.49106-26.84076l.02753-.2496c1.00882-8.61208-.87544-15.35455-5.515-20.34794" />
</svg>
